<svg version="1.1" xmlns="http://www.w3.org/2000/svg" xmlns:xlink="http://www.w3.org/1999/xlink" width="173.4772" height="151.4772" viewBox="0,0,173.4772,151.4772"><g transform="translate(-153.5614,-105.2614)"><g data-paper-data="{&quot;isPaintingLayer&quot;:true}" fill="none" fill-rule="nonzero" stroke="#ffffff" stroke-width="none" stroke-linecap="round" stroke-linejoin="round" stroke-miterlimit="10" stroke-dasharray="" stroke-dashoffset="0" font-family="none" font-weight="none" font-size="none" text-anchor="none" style="mix-blend-mode: normal"><path d="M240.5,221.9c-0.1,0 -0.1,0.1 -0.2,0.1v0c0,0 -0.1,-0.1 -0.2,-0.1c-4.9,-3.6 -68,-49.9 -49.7,-75.1c18.2,-25.2 47.5,2.2 49.8,4.4c2.4,-2.3 31.6,-29.6 49.8,-4.4c18.5,25.2 -44.6,71.5 -49.5,75.1z" fill="none" stroke-width="11"/><g fill="#ffffff" stroke-width="7.4772"><path d="M240.3,121v-12"/><path d="M240.3,253v-12"/></g><g fill="#ffffff" stroke-width="7.4772"><path d="M311.3,181h12"/><path d="M157.3,181h12"/><path d="M286.3,227.5l8.4,8.5"/><path d="M178,118l8.4,8.5"/><path d="M303.4,118.7l-8.6,8.4"/><path d="M193.8,226.9l-8.5,8.4"/></g><g fill="#ffffff" stroke-width="7.4772"><path d="M240.3,121v-12"/><path d="M240.3,253v-12"/></g></g></g></svg>