<svg version="1.1" xmlns="http://www.w3.org/2000/svg" xmlns:xlink="http://www.w3.org/1999/xlink" width="151.4772" height="129.4772" viewBox="0,0,151.4772,129.4772"><g transform="translate(-164.5614,-116.2614)"><g data-paper-data="{&quot;isPaintingLayer&quot;:true}" fill="#ffffff" fill-rule="nonzero" stroke="#ffffff" stroke-width="7.4772" stroke-linecap="round" stroke-linejoin="round" stroke-miterlimit="10" stroke-dasharray="" stroke-dashoffset="0" font-family="none" font-weight="none" font-size="none" text-anchor="none" style="mix-blend-mode: normal"><path d="M240.5,221.9c-0.1,0 -0.1,0.1 -0.2,0.1v0c0,0 -0.1,-0.1 -0.2,-0.1c-4.9,-3.6 -68,-49.9 -49.7,-75.1c18.2,-25.2 47.5,2.2 49.8,4.4c2.4,-2.3 31.6,-29.6 49.8,-4.4c18.5,25.2 -44.6,71.5 -49.5,75.1z"/><g><path d="M240.3,121v-1"/><path d="M240.3,242v-1"/></g><g><path d="M311.3,181h1"/><path d="M168.3,181h1"/><g><path d="M295.3,126.1l-0.8,0.7"/><path d="M193.4,227.9l0.7,-0.7"/></g><g><path d="M186.1,126.8l-0.7,-0.7"/><path d="M287.3,227.9l-0.8,-0.7"/></g></g></g></g></svg>